<?xml version="1.0" encoding="UTF-8"?>
<svg width="810" height="540" viewBox="0 0 810 540" xmlns="http://www.w3.org/2000/svg">
  <rect fill="#003399" width="810" height="540"/>
  <g fill="#FFCC00">
    <path d="M 405,96.5 L 419.9,142.2 L 468.3,142.2 L 429.2,170.8 L 444.1,216.5 L 405,187.9 L 365.9,216.5 L 380.8,170.8 L 341.7,142.2 L 390.1,142.2 Z"/>
    <path d="M 405,96.5 L 419.9,142.2 L 468.3,142.2 L 429.2,170.8 L 444.1,216.5 L 405,187.9 L 365.9,216.5 L 380.8,170.8 L 341.7,142.2 L 390.1,142.2 Z" transform="rotate(30,405,270)"/>
    <path d="M 405,96.5 L 419.9,142.2 L 468.3,142.2 L 429.2,170.8 L 444.1,216.5 L 405,187.9 L 365.9,216.5 L 380.8,170.8 L 341.7,142.2 L 390.1,142.2 Z" transform="rotate(60,405,270)"/>
    <path d="M 405,96.5 L 419.9,142.2 L 468.3,142.2 L 429.2,170.8 L 444.1,216.5 L 405,187.9 L 365.9,216.5 L 380.8,170.8 L 341.7,142.2 L 390.1,142.2 Z" transform="rotate(90,405,270)"/>
    <path d="M 405,96.5 L 419.9,142.2 L 468.3,142.2 L 429.2,170.8 L 444.1,216.5 L 405,187.9 L 365.9,216.5 L 380.8,170.8 L 341.7,142.2 L 390.1,142.2 Z" transform="rotate(120,405,270)"/>
    <path d="M 405,96.5 L 419.9,142.2 L 468.3,142.2 L 429.2,170.8 L 444.1,216.5 L 405,187.9 L 365.9,216.5 L 380.8,170.8 L 341.7,142.2 L 390.1,142.2 Z" transform="rotate(150,405,270)"/>
    <path d="M 405,96.5 L 419.9,142.2 L 468.3,142.2 L 429.2,170.8 L 444.1,216.5 L 405,187.9 L 365.9,216.5 L 380.8,170.8 L 341.7,142.2 L 390.1,142.2 Z" transform="rotate(180,405,270)"/>
    <path d="M 405,96.5 L 419.9,142.2 L 468.3,142.2 L 429.2,170.8 L 444.1,216.5 L 405,187.9 L 365.9,216.5 L 380.8,170.8 L 341.7,142.2 L 390.1,142.2 Z" transform="rotate(210,405,270)"/>
    <path d="M 405,96.5 L 419.9,142.2 L 468.3,142.2 L 429.2,170.8 L 444.1,216.5 L 405,187.9 L 365.9,216.5 L 380.8,170.8 L 341.7,142.2 L 390.1,142.2 Z" transform="rotate(240,405,270)"/>
    <path d="M 405,96.5 L 419.9,142.2 L 468.3,142.2 L 429.2,170.8 L 444.1,216.5 L 405,187.9 L 365.9,216.5 L 380.8,170.8 L 341.7,142.2 L 390.1,142.2 Z" transform="rotate(270,405,270)"/>
    <path d="M 405,96.5 L 419.9,142.2 L 468.3,142.2 L 429.2,170.8 L 444.1,216.5 L 405,187.9 L 365.9,216.5 L 380.8,170.8 L 341.7,142.2 L 390.1,142.2 Z" transform="rotate(300,405,270)"/>
    <path d="M 405,96.5 L 419.9,142.2 L 468.3,142.2 L 429.2,170.8 L 444.1,216.5 L 405,187.9 L 365.9,216.5 L 380.8,170.8 L 341.7,142.2 L 390.1,142.2 Z" transform="rotate(330,405,270)"/>
  </g>
</svg> 