<svg xmlns="http://www.w3.org/2000/svg" viewBox="0 0 810 540">
  <rect fill="#003399" width="810" height="540"/>
  <g fill="#FFCC00">
    <path d="M404.7,59.4l12.3,38.1l40.1,0l-32.4,23.6l12.4,38.1l-32.4-23.6l-32.4,23.6l12.4-38.1l-32.4-23.6l40.1,0z"/>
    <path d="M510.4,95.3l-32.4,23.6l12.4,38.1l-32.4-23.6l-32.4,23.6l12.4-38.1l-32.4-23.6l40.1,0l12.3-38.1l12.3,38.1z"/>
    <path d="M510.4,444.7l-32.4-23.6l12.4-38.1l-32.4,23.6l-32.4-23.6l12.4,38.1l-32.4,23.6l40.1,0l12.3,38.1l12.3-38.1z"/>
    <path d="M404.7,480.6l12.3-38.1l40.1,0l-32.4-23.6l12.4-38.1l-32.4,23.6l-32.4-23.6l12.4,38.1l-32.4,23.6l40.1,0z"/>
    <path d="M299,444.7l40.1,0l12.3,38.1l12.3-38.1l40.1,0l-32.4-23.6l12.4-38.1l-32.4,23.6l-32.4-23.6l12.4,38.1z"/>
    <path d="M299,95.3l40.1,0l12.3-38.1l12.3,38.1l40.1,0l-32.4,23.6l12.4,38.1l-32.4-23.6l-32.4,23.6l12.4-38.1z"/>
    <path d="M210.1,270l40.1,0l12.3-38.1l12.3,38.1l40.1,0l-32.4,23.6l12.4,38.1l-32.4-23.6l-32.4,23.6l12.4-38.1z"/>
    <path d="M599.3,270l-32.4,23.6l12.4,38.1l-32.4-23.6l-32.4,23.6l12.4-38.1l-32.4-23.6l40.1,0l12.3-38.1l12.3,38.1z"/>
  </g>
</svg>

